<svg width="199" height="50" viewBox="0 0 199 50" fill="none" xmlns="http://www.w3.org/2000/svg">
<g clip-path="url(#clip0_1_1006)">
<path d="M64.14 23.46C64.14 24.9933 63.6667 26.1133 62.72 26.82C61.7733 27.5267 60.4733 27.88 58.82 27.88H57.04V33H55.32V19.22H58.82C60.5133 19.22 61.82 19.5733 62.74 20.28C63.6733 20.9867 64.14 22.0467 64.14 23.46ZM62.28 23.48C62.28 22.48 61.9867 21.7533 61.4 21.3C60.8267 20.8333 60.04 20.6 59.04 20.6H57.04V26.5H58.98C60.02 26.5 60.8267 26.2733 61.4 25.82C61.9867 25.3667 62.28 24.5867 62.28 23.48ZM68.6722 29.94C68.6722 30.62 68.8122 31.12 69.0922 31.44C69.3855 31.7467 69.8389 31.9 70.4522 31.9C71.0122 31.9 71.5522 31.74 72.0722 31.42C72.5922 31.1 73.0055 30.7 73.3122 30.22V22.46H74.9922V33H73.5522L73.4122 31.58C72.9989 32.1 72.4855 32.5067 71.8722 32.8C71.2722 33.08 70.6589 33.22 70.0322 33.22C69.0322 33.22 68.2722 32.9533 67.7522 32.42C67.2455 31.8867 66.9922 31.12 66.9922 30.12V22.46H68.6722V29.94ZM86.1044 22.24C86.531 22.24 87.0244 22.3133 87.5844 22.46L87.3444 26.04H85.9844V23.78H85.8844C84.2577 23.78 83.1044 24.94 82.4244 27.26V31.7H84.5644V33H79.0844V31.7H80.7444V23.76H79.0844V22.46H82.0044L82.3244 24.96C82.751 24.0533 83.2577 23.3733 83.8444 22.92C84.4444 22.4667 85.1977 22.24 86.1044 22.24ZM95.6966 22.24C98.2432 22.24 99.5166 24.0667 99.5166 27.72C99.5166 29.3867 99.1699 30.72 98.4766 31.72C97.7832 32.72 96.7766 33.22 95.4566 33.22C94.3099 33.22 93.3766 32.82 92.6566 32.02V37.04L90.9766 37.24V22.46H92.4166L92.5566 23.94C92.9432 23.3933 93.4032 22.9733 93.9366 22.68C94.4832 22.3867 95.0699 22.24 95.6966 22.24ZM95.2966 23.6C94.7632 23.6 94.2699 23.76 93.8166 24.08C93.3766 24.4 92.9899 24.8 92.6566 25.28V30.5C92.9366 30.9133 93.2832 31.24 93.6966 31.48C94.1232 31.7067 94.5832 31.82 95.0766 31.82C95.9566 31.82 96.6099 31.4867 97.0366 30.82C97.4766 30.14 97.6966 29.1067 97.6966 27.72C97.6966 26.3333 97.5032 25.3 97.1166 24.62C96.7299 23.94 96.1232 23.6 95.2966 23.6ZM107.089 30.4C107.089 31.3467 107.669 31.82 108.829 31.82C109.375 31.82 109.962 31.7 110.589 31.46L111.029 32.68C110.362 33.04 109.529 33.22 108.529 33.22C107.582 33.22 106.822 32.96 106.249 32.44C105.689 31.92 105.409 31.2133 105.409 30.32V19.56H102.169V18.22H107.089V30.4ZM116.301 28.32C116.341 29.48 116.641 30.3533 117.201 30.94C117.774 31.5267 118.494 31.82 119.361 31.82C119.881 31.82 120.354 31.7467 120.781 31.6C121.221 31.44 121.688 31.2 122.181 30.88L122.961 32C122.468 32.3867 121.901 32.6867 121.261 32.9C120.634 33.1133 120.001 33.22 119.361 33.22C117.841 33.22 116.654 32.7267 115.801 31.74C114.961 30.74 114.541 29.4067 114.541 27.74C114.541 26.6867 114.728 25.7467 115.101 24.92C115.474 24.08 116.008 23.4267 116.701 22.96C117.394 22.48 118.201 22.24 119.121 22.24C120.454 22.24 121.501 22.7067 122.261 23.64C123.034 24.56 123.421 25.82 123.421 27.42C123.421 27.7267 123.408 28.0267 123.381 28.32H116.301ZM119.141 23.62C118.328 23.62 117.668 23.9133 117.161 24.5C116.654 25.0733 116.368 25.92 116.301 27.04H121.781C121.768 25.9333 121.528 25.0867 121.061 24.5C120.594 23.9133 119.954 23.62 119.141 23.62ZM135.693 29.18C135.693 29.98 135.493 30.6867 135.093 31.3C134.693 31.9 134.113 32.3733 133.353 32.72C132.593 33.0533 131.693 33.22 130.653 33.22C129.653 33.22 128.74 33.0733 127.913 32.78C127.1 32.4733 126.4 32.04 125.813 31.48L126.853 30.3C127.36 30.78 127.92 31.1467 128.533 31.4C129.16 31.6533 129.873 31.78 130.673 31.78C131.58 31.78 132.34 31.56 132.953 31.12C133.566 30.68 133.873 30.0467 133.873 29.22C133.873 28.7533 133.786 28.3667 133.613 28.06C133.44 27.7533 133.133 27.48 132.693 27.24C132.266 27 131.66 26.7667 130.873 26.54C129.38 26.1 128.266 25.5867 127.533 25C126.8 24.4 126.433 23.5867 126.433 22.56C126.433 21.88 126.62 21.2667 126.993 20.72C127.366 20.1733 127.893 19.7533 128.573 19.46C129.253 19.1533 130.026 19 130.893 19C131.8 19 132.606 19.1333 133.313 19.4C134.033 19.6667 134.693 20.06 135.293 20.58L134.253 21.7C133.306 20.8733 132.206 20.46 130.953 20.46C130.153 20.46 129.493 20.6333 128.973 20.98C128.453 21.3267 128.193 21.8333 128.193 22.5C128.193 22.9 128.3 23.24 128.513 23.52C128.726 23.8 129.08 24.06 129.573 24.3C130.066 24.54 130.76 24.7867 131.653 25.04C132.946 25.4133 133.94 25.9 134.633 26.5C135.34 27.1 135.693 27.9933 135.693 29.18ZM143.725 31.78C144.645 31.78 145.559 31.4733 146.465 30.86L147.265 31.96C146.825 32.3467 146.279 32.6533 145.625 32.88C144.972 33.1067 144.339 33.22 143.725 33.22C142.165 33.22 140.945 32.7333 140.065 31.76C139.199 30.7733 138.765 29.4467 138.765 27.78C138.765 26.7267 138.959 25.78 139.345 24.94C139.745 24.1 140.319 23.44 141.065 22.96C141.812 22.48 142.699 22.24 143.725 22.24C145.085 22.24 146.259 22.6533 147.245 23.48L146.425 24.58C145.505 23.9667 144.599 23.66 143.705 23.66C142.759 23.66 141.999 24.0133 141.425 24.72C140.865 25.4133 140.585 26.4333 140.585 27.78C140.585 29.1267 140.865 30.1333 141.425 30.8C141.999 31.4533 142.765 31.78 143.725 31.78ZM152.618 23.92C153.031 23.3867 153.538 22.9733 154.138 22.68C154.738 22.3867 155.358 22.24 155.998 22.24C157.971 22.24 158.958 23.28 158.958 25.36V33H157.278V25.38C157.278 24.7533 157.131 24.3 156.838 24.02C156.544 23.7267 156.078 23.58 155.438 23.58C154.891 23.58 154.364 23.7533 153.858 24.1C153.351 24.4467 152.938 24.8533 152.618 25.32V33H150.938V18.24L152.618 18.06V23.92ZM166.95 22.24C168.403 22.24 169.516 22.7333 170.29 23.72C171.076 24.6933 171.47 26.0267 171.47 27.72C171.47 29.3733 171.07 30.7067 170.27 31.72C169.483 32.72 168.37 33.22 166.93 33.22C165.476 33.22 164.356 32.7333 163.57 31.76C162.783 30.7733 162.39 29.4333 162.39 27.74C162.39 26.0733 162.783 24.74 163.57 23.74C164.37 22.74 165.496 22.24 166.95 22.24ZM166.95 23.62C166.03 23.62 165.343 23.96 164.89 24.64C164.436 25.32 164.21 26.3533 164.21 27.74C164.21 29.1267 164.43 30.16 164.87 30.84C165.323 31.5067 166.01 31.84 166.93 31.84C167.85 31.84 168.53 31.5067 168.97 30.84C169.423 30.16 169.65 29.12 169.65 27.72C169.65 26.3333 169.423 25.3067 168.97 24.64C168.53 23.96 167.856 23.62 166.95 23.62ZM178.942 22.24C180.395 22.24 181.509 22.7333 182.282 23.72C183.069 24.6933 183.462 26.0267 183.462 27.72C183.462 29.3733 183.062 30.7067 182.262 31.72C181.475 32.72 180.362 33.22 178.922 33.22C177.469 33.22 176.349 32.7333 175.562 31.76C174.775 30.7733 174.382 29.4333 174.382 27.74C174.382 26.0733 174.775 24.74 175.562 23.74C176.362 22.74 177.489 22.24 178.942 22.24ZM178.942 23.62C178.022 23.62 177.335 23.96 176.882 24.64C176.429 25.32 176.202 26.3533 176.202 27.74C176.202 29.1267 176.422 30.16 176.862 30.84C177.315 31.5067 178.002 31.84 178.922 31.84C179.842 31.84 180.522 31.5067 180.962 30.84C181.415 30.16 181.642 29.12 181.642 27.72C181.642 26.3333 181.415 25.3067 180.962 24.64C180.522 23.96 179.849 23.62 178.942 23.62ZM191.034 30.4C191.034 31.3467 191.614 31.82 192.774 31.82C193.321 31.82 193.907 31.7 194.534 31.46L194.974 32.68C194.307 33.04 193.474 33.22 192.474 33.22C191.527 33.22 190.767 32.96 190.194 32.44C189.634 31.92 189.354 31.2133 189.354 30.32V19.56H186.114V18.22H191.034V30.4Z" fill="white"/>
<path d="M4.84937 13.366L25 1.73205L45.1506 13.366V36.634L25 48.2679L4.84937 36.634V13.366Z" fill="#16151B" stroke="#6C38CC" stroke-width="3"/>
<path d="M18.0156 21.4668L24.9766 29.0957L24.5371 29.5703L12.6191 21.9766V20.9746L24.5371 13.3633L24.9766 13.8379L18.0156 21.4668Z" fill="white"/>
<path d="M31.9844 28.5332L25.0234 20.9043L25.4629 20.4297L37.3809 28.0234L37.3809 29.0254L25.4629 36.6367L25.0234 36.1621L31.9844 28.5332Z" fill="white"/>
</g>
<defs>
<clipPath id="clip0_1_1006">
<rect width="199" height="50" fill="white"/>
</clipPath>
</defs>
</svg>
