<svg width="20" height="24" viewBox="0 0 20 24" fill="none" xmlns="http://www.w3.org/2000/svg">
<path fill-rule="evenodd" clip-rule="evenodd" d="M0.933096 0.233593C1.21568 0.0736695 1.53517 -0.00681165 1.85861 0.000451504C2.18136 0.00769931 2.49638 0.102059 2.77131 0.273817C2.77189 0.274182 2.77248 0.274547 2.77306 0.274913L19.1195 10.4248C19.3868 10.5869 19.6083 10.8163 19.7626 11.0909C19.9182 11.3679 20 11.6812 20 12C20 12.3188 19.9182 12.6321 19.7626 12.9091C19.6083 13.1837 19.3868 13.4132 19.1195 13.5752L2.77306 23.7251C2.77238 23.7255 2.7717 23.7259 2.77103 23.7264C2.49616 23.898 2.18125 23.9923 1.85861 23.9995C1.53517 24.0068 1.21568 23.9263 0.933096 23.7664C0.65051 23.6065 0.415063 23.3729 0.251039 23.0898C0.0870152 22.8066 0.000356479 22.4842 0 22.1557V1.84428C0.000356479 1.5158 0.0870152 1.19336 0.251039 0.910225C0.415063 0.627094 0.65051 0.393518 0.933096 0.233593ZM18.65 11.2153L18.1811 11.9938L18.187 11.9902C18.1854 11.9912 18.184 11.9926 18.1831 11.9943C18.1821 11.996 18.1816 11.998 18.1816 12C18.1816 12.002 18.1821 12.004 18.1831 12.0057C18.1841 12.0075 18.1855 12.0089 18.1872 12.0099L18.65 11.2153ZM18.171 12L1.8184 1.84632L1.8184 22.1537L1.82139 22.1518L18.171 12Z" fill="white"/>
</svg>
